<?xml version="1.0" encoding="utf-8"?>
<!-- Generator: Adobe Illustrator 16.0.0, SVG Export Plug-In . SVG Version: 6.00 Build 0)  -->
<!DOCTYPE svg PUBLIC "-//W3C//DTD SVG 1.1//EN" "http://www.w3.org/Graphics/SVG/1.1/DTD/svg11.dtd">
<svg version="1.1" id="Layer_1" xmlns="http://www.w3.org/2000/svg" xmlns:xlink="http://www.w3.org/1999/xlink" x="0px" y="0px"
	 width="529.018px" height="137.163px" viewBox="137.455 331.2 529.018 137.163"
	 enable-background="new 137.455 331.2 529.018 137.163" xml:space="preserve">
<g>
	<g>
		<path fill="#5A1E5A" d="M177.018,448.437h-39.563v-90.182h35.055c6.109,0,11.345,0.728,15.854,2.182
			c4.364,1.455,7.709,3.491,10.036,5.963c4.073,4.655,6.109,9.891,6.109,15.709c0,7.127-2.328,12.363-6.836,15.709
			c-1.6,1.163-2.618,1.891-3.2,2.327c-0.582,0.291-1.745,0.728-3.2,1.454c5.527,1.164,10.036,3.782,13.381,7.564
			c3.346,3.781,4.946,8.581,4.946,14.254c0,6.255-2.182,11.782-6.4,16.582C198.109,445.673,189.382,448.437,177.018,448.437z
			 M157.673,394.764h9.6c5.527,0,9.745-0.582,12.509-1.746s4.073-3.782,4.073-7.854s-1.309-6.691-3.782-8s-6.691-1.891-12.655-1.891
			h-9.745V394.764L157.673,394.764z M157.673,431.418h13.818c5.818,0,10.037-0.727,12.946-2.182
			c2.909-1.454,4.363-4.218,4.363-8.437c0-4.218-1.6-6.981-4.509-8.291c-3.055-1.309-8-2.036-14.691-2.036h-11.927V431.418
			L157.673,431.418z"/>
		<path fill="#5A1E5A" d="M218.909,448.437v-90.182h20.073v72.292h38.4v17.891H218.909z"/>
		<path fill="#5A1E5A" d="M358.255,436.073c-9.164,8.872-20.364,13.382-33.746,13.382s-24.582-4.51-33.745-13.382
			c-9.164-8.873-13.673-19.928-13.673-33.164s4.509-24.291,13.673-33.164c9.164-8.873,20.363-13.382,33.745-13.382
			s24.582,4.509,33.746,13.382c9.163,8.873,13.673,19.927,13.673,33.164C371.928,416,367.272,427.055,358.255,436.073z
			 M351.418,402.909c0-8-2.618-14.836-7.709-20.655c-5.091-5.672-11.491-8.582-19.055-8.582s-13.818,2.909-19.054,8.582
			c-5.091,5.673-7.709,12.509-7.709,20.655c0,8,2.618,14.836,7.709,20.509c5.091,5.673,11.491,8.437,19.054,8.437
			s13.818-2.764,19.055-8.437C348.8,417.745,351.418,410.909,351.418,402.909z"/>
		<path fill="#5A1E5A" d="M422.836,430.691c9.892,0,18.037-3.928,24.291-11.782l12.945,13.236
			c-10.182,11.491-22.254,17.31-36.218,17.31s-25.309-4.364-34.327-13.237C380.509,427.491,376,416.437,376,403.055
			s4.654-24.582,13.818-33.455c9.163-9.018,20.363-13.382,33.6-13.382c14.837,0,27.2,5.673,37.236,16.873l-12.509,14.255
			c-6.4-7.854-14.255-11.927-23.709-11.927c-7.563,0-14.109,2.473-19.491,7.418s-8,11.636-8,20.073s2.473,15.127,7.563,20.218
			C409.454,428.073,415.709,430.691,422.836,430.691z"/>
		<path fill="#5A1E5A" d="M468.509,358.254h20.073v37.091l34.036-37.091h24.873l-35.928,39.855c3.055,4.363,8.873,12.363,17.164,24
			c8.291,11.781,14.545,20.509,18.764,26.327h-23.419L497.6,412.8l-9.018,10.036v25.601h-20.073V358.254L468.509,358.254z"/>
	</g>
	<g>
		<path fill="#5A1E5A" d="M603.055,331.2l-9.164,8.436L603.055,331.2z"/>
		<polygon fill="#5A1E5A" points="609.019,355.2 666.473,350.691 603.055,331.2 		"/>
		<path fill="#5A1E5A" d="M574.109,357.964L574.109,357.964L574.109,357.964z"/>
		<polygon fill="#5A1E5A" points="637.382,468.363 666.327,441.745 666.327,441.745 637.382,468.363 631.418,444.363 
			573.818,448.873 		"/>
		<polygon fill="#5A1E5A" points="603.055,331.2 603.055,331.2 593.891,339.636 574.109,357.964 574.109,357.964 574.109,357.964 
			609.6,390.109 616.437,384.728 609.019,355.2 		"/>
		<polygon fill="#5A1E5A" points="666.327,441.745 666.327,441.745 631.127,409.745 624.146,415.272 631.418,444.363 
			637.382,468.363 		"/>
		<path fill="#5A1E5A" d="M666.473,371.782v-21.091l-88,69.672c-2.909,2.328-4.509,5.236-4.509,8.437v20.073l88-68.509
			C664.873,378.037,666.473,374.982,666.473,371.782z"/>
	</g>
</g>
</svg>
